<svg width="94" height="15" viewBox="0 0 94 15" fill="none" xmlns="http://www.w3.org/2000/svg">
<path d="M16.736 12V5.184H14.048V3.6H21.368V5.184H18.68V12H16.736ZM22.414 12V3.6H26.05C26.802 3.6 27.45 3.724 27.994 3.972C28.538 4.212 28.958 4.56 29.254 5.016C29.55 5.472 29.698 6.016 29.698 6.648C29.698 7.272 29.55 7.812 29.254 8.268C28.958 8.716 28.538 9.06 27.994 9.3C27.45 9.54 26.802 9.66 26.05 9.66H23.494L24.358 8.808V12H22.414ZM27.754 12L25.654 8.952H27.73L29.854 12H27.754ZM24.358 9.024L23.494 8.112H25.942C26.542 8.112 26.99 7.984 27.286 7.728C27.582 7.464 27.73 7.104 27.73 6.648C27.73 6.184 27.582 5.824 27.286 5.568C26.99 5.312 26.542 5.184 25.942 5.184H23.494L24.358 4.26V9.024ZM32.861 12V5.184H30.173V3.6H37.493V5.184H34.805V12H32.861Z" fill="#14B1BB"/>
<path d="M43.016 12.144C42.368 12.144 41.764 12.04 41.204 11.832C40.652 11.616 40.172 11.312 39.764 10.92C39.356 10.528 39.036 10.068 38.804 9.54C38.58 9.012 38.468 8.432 38.468 7.8C38.468 7.168 38.58 6.588 38.804 6.06C39.036 5.532 39.356 5.072 39.764 4.68C40.18 4.288 40.664 3.988 41.216 3.78C41.768 3.564 42.372 3.456 43.028 3.456C43.756 3.456 44.412 3.584 44.996 3.84C45.588 4.088 46.084 4.456 46.484 4.944L45.236 6.096C44.948 5.768 44.628 5.524 44.276 5.364C43.924 5.196 43.54 5.112 43.124 5.112C42.732 5.112 42.372 5.176 42.044 5.304C41.716 5.432 41.432 5.616 41.192 5.856C40.952 6.096 40.764 6.38 40.628 6.708C40.5 7.036 40.436 7.4 40.436 7.8C40.436 8.2 40.5 8.564 40.628 8.892C40.764 9.22 40.952 9.504 41.192 9.744C41.432 9.984 41.716 10.168 42.044 10.296C42.372 10.424 42.732 10.488 43.124 10.488C43.54 10.488 43.924 10.408 44.276 10.248C44.628 10.08 44.948 9.828 45.236 9.492L46.484 10.644C46.084 11.132 45.588 11.504 44.996 11.76C44.412 12.016 43.752 12.144 43.016 12.144ZM51.701 12.144C51.037 12.144 50.421 12.036 49.853 11.82C49.293 11.604 48.805 11.3 48.389 10.908C47.981 10.516 47.661 10.056 47.429 9.528C47.205 9 47.093 8.424 47.093 7.8C47.093 7.176 47.205 6.6 47.429 6.072C47.661 5.544 47.985 5.084 48.401 4.692C48.817 4.3 49.305 3.996 49.865 3.78C50.425 3.564 51.033 3.456 51.689 3.456C52.353 3.456 52.961 3.564 53.513 3.78C54.073 3.996 54.557 4.3 54.965 4.692C55.381 5.084 55.705 5.544 55.937 6.072C56.169 6.592 56.285 7.168 56.285 7.8C56.285 8.424 56.169 9.004 55.937 9.54C55.705 10.068 55.381 10.528 54.965 10.92C54.557 11.304 54.073 11.604 53.513 11.82C52.961 12.036 52.357 12.144 51.701 12.144ZM51.689 10.488C52.065 10.488 52.409 10.424 52.721 10.296C53.041 10.168 53.321 9.984 53.561 9.744C53.801 9.504 53.985 9.22 54.113 8.892C54.249 8.564 54.317 8.2 54.317 7.8C54.317 7.4 54.249 7.036 54.113 6.708C53.985 6.38 53.801 6.096 53.561 5.856C53.329 5.616 53.053 5.432 52.733 5.304C52.413 5.176 52.065 5.112 51.689 5.112C51.313 5.112 50.965 5.176 50.645 5.304C50.333 5.432 50.057 5.616 49.817 5.856C49.577 6.096 49.389 6.38 49.253 6.708C49.125 7.036 49.061 7.4 49.061 7.8C49.061 8.192 49.125 8.556 49.253 8.892C49.389 9.22 49.573 9.504 49.805 9.744C50.045 9.984 50.325 10.168 50.645 10.296C50.965 10.424 51.313 10.488 51.689 10.488ZM57.746 12V3.6H59.354L64.31 9.648H63.53V3.6H65.45V12H63.854L58.886 5.952H59.666V12H57.746ZM70.1974 12.144C69.5254 12.144 68.8814 12.056 68.2654 11.88C67.6494 11.696 67.1534 11.46 66.7774 11.172L67.4374 9.708C67.7974 9.964 68.2214 10.176 68.7094 10.344C69.2054 10.504 69.7054 10.584 70.2094 10.584C70.5934 10.584 70.9014 10.548 71.1334 10.476C71.3734 10.396 71.5494 10.288 71.6614 10.152C71.7734 10.016 71.8294 9.86 71.8294 9.684C71.8294 9.46 71.7414 9.284 71.5654 9.156C71.3894 9.02 71.1574 8.912 70.8694 8.832C70.5814 8.744 70.2614 8.664 69.9094 8.592C69.5654 8.512 69.2174 8.416 68.8654 8.304C68.5214 8.192 68.2054 8.048 67.9174 7.872C67.6294 7.696 67.3934 7.464 67.2094 7.176C67.0334 6.888 66.9454 6.52 66.9454 6.072C66.9454 5.592 67.0734 5.156 67.3294 4.764C67.5934 4.364 67.9854 4.048 68.5054 3.816C69.0334 3.576 69.6934 3.456 70.4854 3.456C71.0134 3.456 71.5334 3.52 72.0454 3.648C72.5574 3.768 73.0094 3.952 73.4014 4.2L72.8014 5.676C72.4094 5.452 72.0174 5.288 71.6254 5.184C71.2334 5.072 70.8494 5.016 70.4734 5.016C70.0974 5.016 69.7894 5.06 69.5494 5.148C69.3094 5.236 69.1374 5.352 69.0334 5.496C68.9294 5.632 68.8774 5.792 68.8774 5.976C68.8774 6.192 68.9654 6.368 69.1414 6.504C69.3174 6.632 69.5494 6.736 69.8374 6.816C70.1254 6.896 70.4414 6.976 70.7854 7.056C71.1374 7.136 71.4854 7.228 71.8294 7.332C72.1814 7.436 72.5014 7.576 72.7894 7.752C73.0774 7.928 73.3094 8.16 73.4854 8.448C73.6694 8.736 73.7614 9.1 73.7614 9.54C73.7614 10.012 73.6294 10.444 73.3654 10.836C73.1014 11.228 72.7054 11.544 72.1774 11.784C71.6574 12.024 70.9974 12.144 70.1974 12.144ZM76.8778 6.984H80.9218V8.496H76.8778V6.984ZM77.0218 10.44H81.5938V12H75.0898V3.6H81.4378V5.16H77.0218V10.44ZM83.1405 12V3.6H85.0845V12H83.1405ZM87.078 12V3.6H89.022V10.416H93.234V12H87.078Z" fill="#344859"/>
<circle cx="6" cy="8" r="6" fill="#14B1BB"/>
<rect x="5" y="3.5" width="2" height="1" fill="white"/>
<path d="M7 5H5L4 10L6 12L8 10L7 5Z" fill="white"/>
</svg>
